<?xml version="1.0" encoding="iso-8859-1"?>
<!-- Generator: Adobe Illustrator 18.0.0, SVG Export Plug-In . SVG Version: 6.00 Build 0)  -->
<!DOCTYPE svg PUBLIC "-//W3C//DTD SVG 1.1//EN" "http://www.w3.org/Graphics/SVG/1.1/DTD/svg11.dtd">
<svg version="1.1" id="Capa_1" xmlns="http://www.w3.org/2000/svg" xmlns:xlink="http://www.w3.org/1999/xlink" x="0px" y="0px"
	 viewBox="0 0 297.5 297.5" style="enable-background:new 0 0 297.5 297.5;" xml:space="preserve">
<g>
	<g id="XMLID_46_">
		<g>
			<path style="fill:#B8C4AC;" d="M110.095,106.173c36.19,0,60.2,12.97,60.2,21.54c0,8.58-24.01,21.55-60.2,21.55
				c-36.18,0-60.189-12.97-60.189-21.55C49.905,119.142,73.915,106.173,110.095,106.173z M138.835,127.713
				c0-4.24-2.26-9.79-13.01-12.18c-4.31-0.96-9.891-1.49-15.73-1.49c-5.83,0-11.41,0.53-15.72,1.49
				c-10.75,2.39-13.01,7.939-13.01,12.18c0,4.25,2.26,9.8,13.01,12.19c4.31,0.96,9.89,1.489,15.72,1.489
				c5.84,0,11.42-0.529,15.73-1.489C136.575,137.512,138.835,131.963,138.835,127.713z"/>
			<path style="fill:#595155;" d="M170.295,194.642v8.221c0,7.449-18.12,18.21-46.61,20.909L170.295,194.642z"/>
			<path style="fill:#595155;" d="M170.295,154.463v18.08l-80.63,50.4c-24.51-3.631-39.76-13.25-39.76-20.08v-48.4
				c2.22,1.3,4.62,2.53,7.2,3.68c14.31,6.36,33.13,9.86,52.989,9.86c19.87,0,38.69-3.5,53-9.86
				C165.675,156.993,168.075,155.762,170.295,154.463z"/>
			<path d="M295.825,105.142c2.74,4.391,1.41,10.17-2.98,12.91l-103.81,64.88v19.931c0,12.18-9.21,22.989-25.94,30.42
				c-14.31,6.359-33.13,9.859-53,9.859c-5.479,0-10.88-0.27-16.13-0.79l-48.47,30.29c-1.54,0.96-3.26,1.42-4.95,1.42
				c-3.13,0-6.18-1.56-7.96-4.399c-2.74-4.391-1.4-10.17,2.98-12.91l31.55-19.72c-3.52-1.11-6.88-2.36-10.01-3.75
				c-16.73-7.431-25.94-18.24-25.94-30.42v-4.19l-16.01,11.74c-1.67,1.229-3.61,1.82-5.53,1.82c-2.88,0-5.73-1.33-7.56-3.83
				c-3.061-4.17-2.16-10.04,2.01-13.101l27.09-19.859v-47.73c0-12.18,9.21-22.99,25.94-30.42c14.31-6.36,33.13-9.86,52.989-9.86
				c12.57,0,24.71,1.4,35.57,4.04l90.29-66.22c4.18-3.06,10.04-2.16,13.1,2.019c3.061,4.171,2.16,10.03-2.01,13.091l-80.13,58.76
				c14.3,7.33,22.12,17.37,22.12,28.59v33.12l93.88-58.67C287.295,99.423,293.085,100.753,295.825,105.142z M170.295,202.863v-8.221
				l-46.61,29.13C152.175,221.073,170.295,210.312,170.295,202.863z M170.295,172.543v-18.08c-2.22,1.3-4.62,2.53-7.2,3.68
				c-14.31,6.36-33.13,9.86-53,9.86c-19.859,0-38.68-3.5-52.989-9.86c-2.58-1.149-4.98-2.38-7.2-3.68v48.4
				c0,6.83,15.25,16.449,39.76,20.08L170.295,172.543z M170.295,127.713c0-8.57-24.01-21.54-60.2-21.54
				c-36.18,0-60.189,12.97-60.189,21.54c0,8.58,24.01,21.55,60.189,21.55C146.285,149.262,170.295,136.293,170.295,127.713z"/>
			<path d="M125.825,115.533c10.75,2.39,13.01,7.939,13.01,12.18c0,4.25-2.26,9.8-13.01,12.19c-4.31,0.96-9.891,1.489-15.73,1.489
				c-5.83,0-11.41-0.529-15.72-1.489c-10.75-2.391-13.01-7.94-13.01-12.19c0-4.24,2.26-9.79,13.01-12.18
				c4.31-0.96,9.89-1.49,15.72-1.49C115.935,114.043,121.515,114.573,125.825,115.533z"/>
		</g>
		<g>
		</g>
	</g>
</g>
<g>
</g>
<g>
</g>
<g>
</g>
<g>
</g>
<g>
</g>
<g>
</g>
<g>
</g>
<g>
</g>
<g>
</g>
<g>
</g>
<g>
</g>
<g>
</g>
<g>
</g>
<g>
</g>
<g>
</g>
</svg>
